<svg width="72" height="72" viewBox="0 0 72 72" fill="none" xmlns="http://www.w3.org/2000/svg">
<g clip-path="url(#clip0_3316_8215)">
<mask id="mask0_3316_8215" style="mask-type:luminance" maskUnits="userSpaceOnUse" x="0" y="0" width="72" height="72">
<path d="M72 0H0V72H72V0Z" fill="white"/>
</mask>
<g mask="url(#mask0_3316_8215)">
<mask id="mask1_3316_8215" style="mask-type:luminance" maskUnits="userSpaceOnUse" x="-1" y="-1" width="74" height="74">
<path d="M-0.25 -0.25H72.25V72.25H-0.25V-0.25Z" fill="white"/>
</mask>
<g mask="url(#mask1_3316_8215)">
<path d="M29.5956 13.235C31.5545 14.6514 33.3227 16.4034 34.8107 18.476C42.2094 28.781 39.8832 43.1111 29.615 50.4833C27.4219 52.0579 25.0438 53.1876 22.5878 53.8905C21.3489 54.245 20.9178 55.8676 22.0023 56.5636C30.4839 62.0056 41.7516 62.0665 50.4095 55.8504C61.7486 47.7093 64.3176 31.8844 56.1472 20.5044C50.0152 11.9637 39.5766 8.35404 29.9562 10.5264C29.7629 10.5701 29.596 10.6464 29.4556 10.7473C28.6828 11.3023 28.7127 12.5965 29.5956 13.235Z" fill="url(#paint0_linear_3316_8215)"/>
<path d="M11.1775 10.6836C6.99974 11.0074 3.71068 14.5001 3.71068 18.7608C3.71068 23.2354 7.33799 26.8627 11.8126 26.8627H24.4155H25.3157H37.0184C42.4873 26.8627 46.9207 22.4293 46.9207 16.9604C46.9207 11.4915 42.4873 7.05817 37.0184 7.05817C36.8012 7.05817 36.5857 7.06508 36.3721 7.07891C34.1117 2.78453 29.6056 -0.143555 24.4155 -0.143555C17.8741 -0.143555 12.4191 4.50783 11.1775 10.6836Z" fill="url(#paint1_linear_3316_8215)"/>
<path d="M11.8126 10.6592C7.33798 10.6592 3.71068 14.2865 3.71068 18.7611C3.71068 23.2356 7.33798 26.8629 11.8126 26.8629H25.3157V21.4617C25.3157 15.4957 20.4793 10.6592 14.5132 10.6592H11.8126Z" fill="url(#paint2_radial_3316_8215)"/>
<path d="M10.9124 13.3596C10.9124 20.8172 16.9579 26.8627 24.4155 26.8627C31.873 26.8627 37.9186 20.8172 37.9186 13.3596C37.9186 5.90204 31.873 -0.143555 24.4155 -0.143555C16.9579 -0.143555 10.9124 5.90204 10.9124 13.3596Z" fill="url(#paint3_radial_3316_8215)"/>
<path d="M27.1161 16.9609C27.1161 22.4298 31.5495 26.8631 37.0184 26.8631C42.4873 26.8631 46.9207 22.4298 46.9207 16.9609C46.9207 11.492 42.4873 7.05859 37.0184 7.05859C31.5495 7.05859 27.1161 11.492 27.1161 16.9609Z" fill="url(#paint4_radial_3316_8215)"/>
</g>
</g>
</g>
<defs>
<linearGradient id="paint0_linear_3316_8215" x1="21.0129" y1="13.9132" x2="49.0489" y2="53.4653" gradientUnits="userSpaceOnUse">
<stop stop-color="#EF841D"/>
<stop offset="0.22" stop-color="#EF841B"/>
<stop offset="0.45" stop-color="#EE851A"/>
<stop offset="0.72" stop-color="#EE8219"/>
<stop offset="1" stop-color="#EE7F18"/>
</linearGradient>
<linearGradient id="paint1_linear_3316_8215" x1="25.3157" y1="-0.118579" x2="25.421" y2="26.1747" gradientUnits="userSpaceOnUse">
<stop stop-color="#AFCEFA"/>
<stop offset="0.39" stop-color="#B1D0F9"/>
<stop offset="0.78" stop-color="#B4D2F9"/>
<stop offset="0.89" stop-color="#90B4EE"/>
<stop offset="1" stop-color="#6C95E3"/>
</linearGradient>
<radialGradient id="paint2_radial_3316_8215" cx="0" cy="0" r="1" gradientUnits="userSpaceOnUse" gradientTransform="translate(17.7201 27.6354) scale(18.9809 18.9809)">
<stop offset="0.69" stop-color="#8FABDD" stop-opacity="0"/>
<stop offset="0.84" stop-color="#7296D8" stop-opacity="0.5"/>
<stop offset="1" stop-color="#5582D3"/>
</radialGradient>
<radialGradient id="paint3_radial_3316_8215" cx="0" cy="0" r="1" gradientUnits="userSpaceOnUse" gradientTransform="translate(24.8586 24.8845) scale(25.0985)">
<stop offset="0.6" stop-color="#C7DFFF" stop-opacity="0"/>
<stop offset="0.8" stop-color="#8FB0EC" stop-opacity="0.5"/>
<stop offset="1" stop-color="#5782DA"/>
</radialGradient>
<radialGradient id="paint4_radial_3316_8215" cx="0" cy="0" r="1" gradientUnits="userSpaceOnUse" gradientTransform="translate(31.3275 25.0321) scale(19.797)">
<stop offset="0.48" stop-color="#8FABDD" stop-opacity="0"/>
<stop offset="0.74" stop-color="#7396DC" stop-opacity="0.5"/>
<stop offset="1" stop-color="#5782DA"/>
</radialGradient>
<clipPath id="clip0_3316_8215">
<rect width="72" height="72" fill="white"/>
</clipPath>
</defs>
</svg>
